<?xml version="1.0" standalone="no"?>
<!DOCTYPE svg PUBLIC "-//W3C//DTD SVG 20010904//EN"
 "http://www.w3.org/TR/2001/REC-SVG-20010904/DTD/svg10.dtd">
<svg version="1.0" xmlns="http://www.w3.org/2000/svg"
 width="256.000000pt" height="256.000000pt" viewBox="0 0 256.000000 256.000000"
 preserveAspectRatio="xMidYMid meet">

<g transform="translate(0.000000,256.000000) scale(0.100000,-0.100000)"
fill="#000000" stroke="none">
<path d="M347 2549 c-158 -37 -300 -181 -336 -340 -14 -60 -14 -1798 0 -1858
37 -162 178 -303 340 -340 60 -14 1798 -14 1858 0 162 37 303 178 340 340 14
60 14 1798 0 1858 -37 162 -178 303 -340 340 -55 13 -1808 13 -1862 0z m949
-390 c95 -13 218 -51 299 -92 344 -173 533 -518 485 -888 -16 -125 -42 -204
-101 -319 l-50 -94 181 -181 c99 -99 180 -184 180 -188 0 -4 -105 -7 -234 -7
l-233 0 -53 80 c-29 45 -56 79 -59 78 -3 -2 -53 -27 -111 -55 -165 -82 -238
-96 -515 -97 l-230 -1 0 160 0 160 210 5 210 5 65 32 c123 60 131 37 -85 253
l-190 190 108 107 107 108 190 -190 c215 -215 193 -207 250 -90 40 82 51 146
39 231 -25 182 -183 368 -376 440 -148 56 -283 51 -418 -16 -141 -69 -254
-194 -307 -340 -23 -64 -23 -69 -26 -560 l-2 -495 -158 0 -157 0 0 520 c0 508
1 522 23 605 115 434 516 701 958 639z"/>
</g>
</svg>
